<svg xmlns="http://www.w3.org/2000/svg" xml:space="preserve" width="512" height="273" shape-rendering="geometricPrecision" text-rendering="geometricPrecision" image-rendering="optimizeQuality" fill-rule="evenodd" clip-rule="evenodd" viewBox="0 0 512 273.23"><path fill-rule="nonzero" d="m404.63 17.77 26.89 62.95 68.58 6.13c3.52.42 6.6 2.19 8.74 4.73 2.15 2.56 3.35 5.9 3.13 9.44l-.07.85c-.2 1.6-.67 3.11-1.36 4.48l-.32.57c-.59 1.03-1.32 1.98-2.15 2.81l-52.28 45.69 15.26 66.77c.84 3.62.11 7.27-1.73 10.19-1.83 2.9-4.8 5.14-8.43 5.96-1.79.4-3.62.43-5.36.12-1.69-.3-3.3-.93-4.74-1.83l-58.58-35.01-27.34 16.34-3.63-15.61 27.01-16.15a7.633 7.633 0 0 1 7.88-.03l59.09 35.32-15.34-67.1c-.59-2.66.23-5.54 2.42-7.46l51.85-45.27-68.1-6.12a7.621 7.621 0 0 1-6.8-4.64l-27.04-63.3-17.94 42.02-16.02-1.44 21.55-50.45c1.45-3.42 4.16-5.93 7.36-7.22 3.21-1.3 6.91-1.36 10.34.1l.59.28c1.4.67 2.64 1.57 3.66 2.6 1.23 1.19 2.19 2.67 2.88 4.28zM262.89 4.59l36.63 85.78 92.92 8.34c4.1.35 7.14 3.96 6.78 8.06-.17 2-1.12 3.74-2.52 4.96l-70.29 61.38 20.79 90.99c.93 4.01-1.59 8.02-5.61 8.94-2.05.47-4.11.04-5.75-1.03L256 224.27l-80.1 47.89c-3.53 2.11-8.1.96-10.22-2.58a7.365 7.365 0 0 1-.87-5.48l-.01-.01 20.8-90.98-70.3-61.38a7.445 7.445 0 0 1-.7-10.52 7.448 7.448 0 0 1 5.21-2.53l92.67-8.31 36.65-85.82c1.62-3.8 6-5.57 9.79-3.95 1.87.79 3.25 2.26 3.97 3.99zM119.79 27.6 92.75 90.9a7.61 7.61 0 0 1-6.8 4.64l-68.1 6.12 51.85 45.27a7.653 7.653 0 0 1 2.42 7.46l-15.33 67.1 59.08-35.32c2.51-1.5 5.53-1.39 7.88.03l27.05 16.17-3.57 15.65-27.44-16.4-58.58 35.02c-1.44.89-3.05 1.52-4.74 1.82-1.74.31-3.57.28-5.35-.12-3.65-.82-6.61-3.06-8.44-5.96-1.83-2.93-2.56-6.57-1.73-10.19l15.26-66.77-52.28-45.69c-.83-.83-1.56-1.78-2.15-2.81l-.31-.57c-.7-1.37-1.17-2.88-1.37-4.48l-.07-.82c-.22-3.56.98-6.9 3.13-9.47 2.14-2.55 5.22-4.31 8.75-4.73l68.57-6.13 26.89-62.95c.69-1.61 1.66-3.09 2.86-4.29 1.04-1.02 2.27-1.91 3.67-2.58l.61-.29c3.41-1.46 7.12-1.4 10.33-.11 3.2 1.3 5.91 3.81 7.36 7.23l21.54 50.43-16 1.44-17.95-42z"/></svg>