<svg id="visual" viewBox="0 0 900 600" width="900" height="600" xmlns="http://www.w3.org/2000/svg" xmlns:xlink="http://www.w3.org/1999/xlink" version="1.1"><path d="M0 79L82 115L164 79L245 193L327 253L409 217L491 247L573 187L655 217L736 175L818 103L900 199L900 0L818 0L736 0L655 0L573 0L491 0L409 0L327 0L245 0L164 0L82 0L0 0Z" fill="#212535"></path><path d="M0 223L82 247L164 229L245 253L327 355L409 331L491 379L573 343L655 277L736 247L818 223L900 265L900 197L818 101L736 173L655 215L573 185L491 245L409 215L327 251L245 191L164 77L82 113L0 77Z" fill="#1e212f"></path><path d="M0 289L82 301L164 343L245 367L327 409L409 397L491 439L573 391L655 343L736 325L818 301L900 325L900 263L818 221L736 245L655 275L573 341L491 377L409 329L327 353L245 251L164 227L82 245L0 221Z" fill="#1b1e29"></path><path d="M0 535L82 499L164 541L245 517L327 523L409 523L491 535L573 565L655 505L736 553L818 541L900 499L900 323L818 299L736 323L655 341L573 389L491 437L409 395L327 407L245 365L164 341L82 299L0 287Z" fill="#181a23"></path><path d="M0 601L82 601L164 601L245 601L327 601L409 601L491 601L573 601L655 601L736 601L818 601L900 601L900 497L818 539L736 551L655 503L573 563L491 533L409 521L327 521L245 515L164 539L82 497L0 533Z" fill="#15171e"></path></svg>