<svg id="visual" viewBox="0 0 960 540" width="960" height="540" xmlns="http://www.w3.org/2000/svg" xmlns:xlink="http://www.w3.org/1999/xlink" version="1.1"><path d="M0 195L14.5 178.8C29 162.7 58 130.3 87.2 127.7C116.3 125 145.7 152 174.8 152C204 152 233 125 262 111.5C291 98 320 98 349 108C378 118 407 138 436.2 152.5C465.3 167 494.7 176 523.8 179.5C553 183 582 181 611 183.7C640 186.3 669 193.7 698 181.2C727 168.7 756 136.3 785.2 117.3C814.3 98.3 843.7 92.7 872.8 96.2C902 99.7 931 112.3 945.5 118.7L960 125L960 0L945.5 0C931 0 902 0 872.8 0C843.7 0 814.3 0 785.2 0C756 0 727 0 698 0C669 0 640 0 611 0C582 0 553 0 523.8 0C494.7 0 465.3 0 436.2 0C407 0 378 0 349 0C320 0 291 0 262 0C233 0 204 0 174.8 0C145.7 0 116.3 0 87.2 0C58 0 29 0 14.5 0L0 0Z" fill="#212535"></path><path d="M0 293L14.5 292C29 291 58 289 87.2 289.8C116.3 290.7 145.7 294.3 174.8 293.5C204 292.7 233 287.3 262 281C291 274.7 320 267.3 349 275.3C378 283.3 407 306.7 436.2 307.7C465.3 308.7 494.7 287.3 523.8 279.3C553 271.3 582 276.7 611 288.3C640 300 669 318 698 323.3C727 328.7 756 321.3 785.2 314.2C814.3 307 843.7 300 872.8 302.7C902 305.3 931 317.7 945.5 323.8L960 330L960 123L945.5 116.7C931 110.3 902 97.7 872.8 94.2C843.7 90.7 814.3 96.3 785.2 115.3C756 134.3 727 166.7 698 179.2C669 191.7 640 184.3 611 181.7C582 179 553 181 523.8 177.5C494.7 174 465.3 165 436.2 150.5C407 136 378 116 349 106C320 96 291 96 262 109.5C233 123 204 150 174.8 150C145.7 150 116.3 123 87.2 125.7C58 128.3 29 160.7 14.5 176.8L0 193Z" fill="#1e212f"></path><path d="M0 363L14.5 361.2C29 359.3 58 355.7 87.2 354.7C116.3 353.7 145.7 355.3 174.8 353.5C204 351.7 233 346.3 262 335.7C291 325 320 309 349 315.3C378 321.7 407 350.3 436.2 360.2C465.3 370 494.7 361 523.8 354.7C553 348.3 582 344.7 611 354.5C640 364.3 669 387.7 698 392.2C727 396.7 756 382.3 785.2 376.2C814.3 370 843.7 372 872.8 373.8C902 375.7 931 377.3 945.5 378.2L960 379L960 328L945.5 321.8C931 315.7 902 303.3 872.8 300.7C843.7 298 814.3 305 785.2 312.2C756 319.3 727 326.7 698 321.3C669 316 640 298 611 286.3C582 274.7 553 269.3 523.8 277.3C494.7 285.3 465.3 306.7 436.2 305.7C407 304.7 378 281.3 349 273.3C320 265.3 291 272.7 262 279C233 285.3 204 290.7 174.8 291.5C145.7 292.3 116.3 288.7 87.2 287.8C58 287 29 289 14.5 290L0 291Z" fill="#1b1e29"></path><path d="M0 449L14.5 447.2C29 445.3 58 441.7 87.2 445.3C116.3 449 145.7 460 174.8 459.2C204 458.3 233 445.7 262 433C291 420.3 320 407.7 349 410.3C378 413 407 431 436.2 437.3C465.3 443.7 494.7 438.3 523.8 433.8C553 429.3 582 425.7 611 433.8C640 442 669 462 698 462C727 462 756 442 785.2 440.2C814.3 438.3 843.7 454.7 872.8 454.7C902 454.7 931 438.3 945.5 430.2L960 422L960 377L945.5 376.2C931 375.3 902 373.7 872.8 371.8C843.7 370 814.3 368 785.2 374.2C756 380.3 727 394.7 698 390.2C669 385.7 640 362.3 611 352.5C582 342.7 553 346.3 523.8 352.7C494.7 359 465.3 368 436.2 358.2C407 348.3 378 319.7 349 313.3C320 307 291 323 262 333.7C233 344.3 204 349.7 174.8 351.5C145.7 353.3 116.3 351.7 87.2 352.7C58 353.7 29 357.3 14.5 359.2L0 361Z" fill="#181a23"></path><path d="M0 541L14.5 541C29 541 58 541 87.2 541C116.3 541 145.7 541 174.8 541C204 541 233 541 262 541C291 541 320 541 349 541C378 541 407 541 436.2 541C465.3 541 494.7 541 523.8 541C553 541 582 541 611 541C640 541 669 541 698 541C727 541 756 541 785.2 541C814.3 541 843.7 541 872.8 541C902 541 931 541 945.5 541L960 541L960 420L945.5 428.2C931 436.3 902 452.7 872.8 452.7C843.7 452.7 814.3 436.3 785.2 438.2C756 440 727 460 698 460C669 460 640 440 611 431.8C582 423.7 553 427.3 523.8 431.8C494.7 436.3 465.3 441.7 436.2 435.3C407 429 378 411 349 408.3C320 405.7 291 418.3 262 431C233 443.7 204 456.3 174.8 457.2C145.7 458 116.3 447 87.2 443.3C58 439.7 29 443.3 14.5 445.2L0 447Z" fill="#15171e"></path></svg>