<svg id="visual" viewBox="0 0 960 540" width="960" height="540" xmlns="http://www.w3.org/2000/svg" xmlns:xlink="http://www.w3.org/1999/xlink" version="1.1"><path d="M0 71L14.5 75.5C29 80 58 89 87.2 102.5C116.3 116 145.7 134 174.8 147.5C204 161 233 170 262 159.2C291 148.3 320 117.7 349 105.2C378 92.7 407 98.3 436.2 97.5C465.3 96.7 494.7 89.3 523.8 91C553 92.7 582 103.3 611 120.5C640 137.7 669 161.3 698 164.2C727 167 756 149 785.2 148C814.3 147 843.7 163 872.8 163C902 163 931 147 945.5 139L960 131L960 0L945.5 0C931 0 902 0 872.8 0C843.7 0 814.3 0 785.2 0C756 0 727 0 698 0C669 0 640 0 611 0C582 0 553 0 523.8 0C494.7 0 465.3 0 436.2 0C407 0 378 0 349 0C320 0 291 0 262 0C233 0 204 0 174.8 0C145.7 0 116.3 0 87.2 0C58 0 29 0 14.5 0L0 0Z" fill="#a96df1"></path><path d="M0 141L14.5 146.5C29 152 58 163 87.2 178.3C116.3 193.7 145.7 213.3 174.8 229.5C204 245.7 233 258.3 262 244.8C291 231.3 320 191.7 349 178.2C378 164.7 407 177.3 436.2 172.8C465.3 168.3 494.7 146.7 523.8 142.2C553 137.7 582 150.3 611 175.5C640 200.7 669 238.3 698 245.5C727 252.7 756 229.3 785.2 227.7C814.3 226 843.7 246 872.8 239.7C902 233.3 931 200.7 945.5 184.3L960 168L960 129L945.5 137C931 145 902 161 872.8 161C843.7 161 814.3 145 785.2 146C756 147 727 165 698 162.2C669 159.3 640 135.7 611 118.5C582 101.3 553 90.7 523.8 89C494.7 87.3 465.3 94.7 436.2 95.5C407 96.3 378 90.7 349 103.2C320 115.7 291 146.3 262 157.2C233 168 204 159 174.8 145.5C145.7 132 116.3 114 87.2 100.5C58 87 29 78 14.5 73.5L0 69Z" fill="#a163ec"></path><path d="M0 179L14.5 188C29 197 58 215 87.2 238.5C116.3 262 145.7 291 174.8 311.7C204 332.3 233 344.7 262 328.3C291 312 320 267 349 246.3C378 225.7 407 229.3 436.2 232.2C465.3 235 494.7 237 523.8 232.5C553 228 582 217 611 236.7C640 256.3 669 306.7 698 320.2C727 333.7 756 310.3 785.2 301.3C814.3 292.3 843.7 297.7 872.8 294.2C902 290.7 931 278.3 945.5 272.2L960 266L960 166L945.5 182.3C931 198.7 902 231.3 872.8 237.7C843.7 244 814.3 224 785.2 225.7C756 227.3 727 250.7 698 243.5C669 236.3 640 198.7 611 173.5C582 148.3 553 135.7 523.8 140.2C494.7 144.7 465.3 166.3 436.2 170.8C407 175.3 378 162.7 349 176.2C320 189.7 291 229.3 262 242.8C233 256.3 204 243.7 174.8 227.5C145.7 211.3 116.3 191.7 87.2 176.3C58 161 29 150 14.5 144.5L0 139Z" fill="#9959e7"></path><path d="M0 320L14.5 325.3C29 330.7 58 341.3 87.2 361C116.3 380.7 145.7 409.3 174.8 425.5C204 441.7 233 445.3 262 423.8C291 402.3 320 355.7 349 327.8C378 300 407 291 436.2 298.2C465.3 305.3 494.7 328.7 523.8 342.2C553 355.7 582 359.3 611 372C640 384.7 669 406.3 698 406.3C727 406.3 756 384.7 785.2 381C814.3 377.3 843.7 391.7 872.8 392.5C902 393.3 931 380.7 945.5 374.3L960 368L960 264L945.5 270.2C931 276.3 902 288.7 872.8 292.2C843.7 295.7 814.3 290.3 785.2 299.3C756 308.3 727 331.7 698 318.2C669 304.7 640 254.3 611 234.7C582 215 553 226 523.8 230.5C494.7 235 465.3 233 436.2 230.2C407 227.3 378 223.7 349 244.3C320 265 291 310 262 326.3C233 342.7 204 330.3 174.8 309.7C145.7 289 116.3 260 87.2 236.5C58 213 29 195 14.5 186L0 177Z" fill="#914fe2"></path><path d="M0 541L14.5 541C29 541 58 541 87.2 541C116.3 541 145.7 541 174.8 541C204 541 233 541 262 541C291 541 320 541 349 541C378 541 407 541 436.2 541C465.3 541 494.7 541 523.8 541C553 541 582 541 611 541C640 541 669 541 698 541C727 541 756 541 785.2 541C814.3 541 843.7 541 872.8 541C902 541 931 541 945.5 541L960 541L960 366L945.5 372.3C931 378.7 902 391.3 872.8 390.5C843.7 389.7 814.3 375.3 785.2 379C756 382.7 727 404.3 698 404.3C669 404.3 640 382.7 611 370C582 357.3 553 353.7 523.8 340.2C494.7 326.7 465.3 303.3 436.2 296.2C407 289 378 298 349 325.8C320 353.7 291 400.3 262 421.8C233 443.3 204 439.7 174.8 423.5C145.7 407.3 116.3 378.7 87.2 359C58 339.3 29 328.7 14.5 323.3L0 318Z" fill="#8844dc"></path></svg>