<svg id="visual" viewBox="0 0 960 540" width="960" height="540" xmlns="http://www.w3.org/2000/svg" xmlns:xlink="http://www.w3.org/1999/xlink" version="1.1"><path d="M0 120L87 190L175 131L262 174L349 179L436 109L524 109L611 158L698 136L785 190L873 125L960 206L960 0L873 0L785 0L698 0L611 0L524 0L436 0L349 0L262 0L175 0L87 0L0 0Z" fill="#15171e"></path><path d="M0 336L87 341L175 352L262 293L349 314L436 363L524 271L611 309L698 298L785 341L873 282L960 309L960 204L873 123L785 188L698 134L611 156L524 107L436 107L349 177L262 172L175 129L87 188L0 118Z" fill="#181a23"></path><path d="M0 422L87 411L175 433L262 411L349 390L436 449L524 411L611 438L698 379L785 411L873 401L960 368L960 307L873 280L785 339L698 296L611 307L524 269L436 361L349 312L262 291L175 350L87 339L0 334Z" fill="#1b1e29"></path><path d="M0 482L87 492L175 482L262 449L349 460L436 487L524 482L611 471L698 465L785 487L873 471L960 433L960 366L873 399L785 409L698 377L611 436L524 409L436 447L349 388L262 409L175 431L87 409L0 420Z" fill="#1e212f"></path><path d="M0 541L87 541L175 541L262 541L349 541L436 541L524 541L611 541L698 541L785 541L873 541L960 541L960 431L873 469L785 485L698 463L611 469L524 480L436 485L349 458L262 447L175 480L87 490L0 480Z" fill="#212535"></path></svg>